# xmcd CD database file
#
# Track frame offsets:
#	150
#	26440
#	45970
#	67380
#	91450
#	112620
#	128020
#	146680
#	159882
#	182760
#	192677
#
# Disc length: 2901 seconds
#
# Revision: 2
# Processed by: cddbd v1.5.2PL0 Copyright (c) Steve Scherf et al.
# Submitted via: CDex 1.50beta10
#
DISCID=900b530b
DTITLE=Johnny Jenkins - Ton-Ton Macoute!
DYEAR=1970
DGENRE=Southern Rock
TTITLE0=I Walk On Gilded Splinters
TTITLE1=Leaving Drunk
TTITLE2=Blind Bats And Swamp Rats
TTITLE3=Rollin' Stone
TTITLE4=Sick And Tired
TTITLE5=Down Along The Cove
TTITLE6=Bad News
TTITLE7=Dimples
TTITLE8=Voodoo In You
TTITLE9=I Don't Want No Woman
TTITLE10=My Love Will Never Die
EXTD=YEAR: 1970
EXTT0=
EXTT1=
EXTT2=
EXTT3=
EXTT4=
EXTT5=
EXTT6=
EXTT7=
EXTT8=
EXTT9=bonus track\n
EXTT10=bonus track\n
PLAYORDER=
